<?xml version="1.0" encoding="iso-8859-1"?>
<!-- Generator: Adobe Illustrator 16.0.0, SVG Export Plug-In . SVG Version: 6.00 Build 0)  -->
<!DOCTYPE svg PUBLIC "-//W3C//DTD SVG 1.1//EN" "http://www.w3.org/Graphics/SVG/1.1/DTD/svg11.dtd">
<svg version="1.1" id="Capa_1" xmlns="http://www.w3.org/2000/svg" xmlns:xlink="http://www.w3.org/1999/xlink" x="0px" y="0px"
	 width="446.598px" height="446.598px" viewBox="0 0 446.598 446.598" style="enable-background:new 0 0 446.598 446.598;"
	 xml:space="preserve">
<g>
	<g>
		<path d="M317.157,0H129.44c-16.709,0-30.305,13.596-30.305,30.305v385.987c0,16.707,13.596,30.306,30.305,30.306h187.717
			c16.712,0,30.306-13.599,30.306-30.306V30.305C347.463,13.596,333.869,0,317.157,0z M335.616,416.292
			c0,10.171-8.282,18.453-18.459,18.453H129.44c-10.176,0-18.456-8.282-18.456-18.453V30.305c0-10.176,8.279-18.456,18.456-18.456
			h187.717c10.177,0,18.459,8.28,18.459,18.456V416.292L335.616,416.292z"/>
		<path d="M324.47,49.279H121.318c-1.635,0-2.963,1.328-2.963,2.963v338.854c0,1.64,1.328,2.965,2.963,2.965h203.157
			c1.636,0,2.966-1.325,2.966-2.965V52.243C327.431,50.607,326.1,49.279,324.47,49.279z M313.604,388.135H132.182
			c-4.362,0-7.901-3.539-7.901-7.901V63.104c0-4.359,3.54-7.898,7.901-7.898h181.431c4.361,0,7.901,3.539,7.901,7.898v317.13
			C321.504,384.606,317.975,388.135,313.604,388.135z"/>
		<path d="M210.304,31.237h33.325c1.63,0,2.96-1.328,2.96-2.963c0-1.635-1.33-2.963-2.96-2.963h-33.325
			c-1.635,0-2.963,1.328-2.963,2.963C207.341,29.91,208.669,31.237,210.304,31.237z"/>
		<path d="M243.223,403.77h-34.127c-7.008,0-12.713,5.703-12.713,12.711v2.031c0,7.012,5.705,12.72,12.713,12.72h34.127
			c7.007,0,12.71-5.708,12.71-12.72v-2.031C255.933,409.473,250.229,403.77,243.223,403.77z M250.012,418.512
			c0,3.742-3.052,6.794-6.789,6.794h-34.127c-3.745,0-6.787-3.052-6.787-6.794v-2.031c0-3.743,3.049-6.785,6.787-6.785h34.127
			c3.747,0,6.789,3.042,6.789,6.785V418.512z"/>
		<path d="M169.145,413.377h-14.322c-0.546,0-0.988,0.442-0.988,0.985c0,0.544,0.442,0.99,0.988,0.99h14.322
			c0.546,0,0.988-0.446,0.988-0.99C170.132,413.82,169.69,413.377,169.145,413.377z"/>
		<path d="M168.078,417.801h-12.189c-0.546,0-0.988,0.441-0.988,0.984c0,0.549,0.442,0.99,0.988,0.99h12.189
			c0.546,0,0.988-0.441,0.988-0.99C169.066,418.243,168.617,417.801,168.078,417.801z"/>
		<path d="M167.24,422.208h-10.514c-0.546,0-0.988,0.441-0.988,0.985c0,0.548,0.442,0.99,0.988,0.99h10.514
			c0.546,0,0.988-0.442,0.988-0.99C168.228,422.661,167.779,422.208,167.24,422.208z"/>
		<path d="M290.006,414.45c-0.519,0-0.944-0.442-0.944-0.985c0-0.549-1.148-0.335-2.564,0.487c-1.412,0.817-1.412,2.143,0,2.955
			c1.416,0.812,2.564,1.041,2.564,0.498c0-0.538,0.426-0.98,0.944-0.98h0.949c3.266,0,6.022,1.676,6.022,3.656
			c0,1.985-2.757,3.661-6.022,3.661h-4.575c-0.543,0-0.985,0.442-0.985,0.985c0,0.549,0.442,0.99,0.985,0.99h4.575
			c4.479,0,7.998-2.473,7.998-5.637c0-3.158-3.509-5.631-7.998-5.631C290.955,414.45,290.533,414.45,290.006,414.45z"/>
	</g>
</g>
<g>
</g>
<g>
</g>
<g>
</g>
<g>
</g>
<g>
</g>
<g>
</g>
<g>
</g>
<g>
</g>
<g>
</g>
<g>
</g>
<g>
</g>
<g>
</g>
<g>
</g>
<g>
</g>
<g>
</g>
</svg>
